<?xml version="1.0" encoding="iso-8859-1"?>
<!-- Generator: Adobe Illustrator 22.1.0, SVG Export Plug-In . SVG Version: 6.00 Build 0)  -->
<svg xmlns="http://www.w3.org/2000/svg" xmlns:xlink="http://www.w3.org/1999/xlink" version="1.1" id="Layer_3" x="0px" y="0px" viewBox="0 0 64 64" style="enable-background:new 0 0 64 64;" xml:space="preserve" width="512" height="512">
<g>
	<g>
		<path style="fill:#FABE78;" d="M52,21c-2.528,2.528-4.164,5.772-4.748,9.252L50,33l2-2l2,2l2.748-2.748    C56.164,26.772,54.528,23.528,52,21z"/>
	</g>
	<g>
		<path style="fill:#FCD4A5;" d="M56.763,30.237L54,33l-2-2l-2,2l-2.763-2.763l-0.001,0C47.08,31.168,47,32.115,47,33.071V36    c0,1.636,0.785,3.088,2,4l0,0l6,0c1.214-0.912,2-2.364,2-4v-2.929C57,32.115,56.92,31.168,56.763,30.237L56.763,30.237z"/>
	</g>
	<g>
		<polygon style="fill:#8C6239;" points="19.2,31 22,25 16,25 14,27 12,25 2,25 4.8,31   "/>
	</g>
	<g>
		<polygon style="fill:#A67C52;" points="16.2,31 19,25 16,25 14,27 12.5,25.5 11,27 9,25 2,25 4.8,31   "/>
	</g>
	<g>
		<polyline style="fill:#482A0E;" points="9,40 4.8,31 4.8,31 19.2,31 15,40   "/>
	</g>
	<g>
		<polygon style="fill:#603813;" points="4.8,31 9,40 12,40 16.2,31   "/>
	</g>
	<g>
		<path style="fill:#FABE78;" d="M34,40l1.586-1.586C36.491,37.509,37,36.281,37,35v0c0-1.281-0.509-2.509-1.414-3.414l-2.172-2.172    C32.509,28.509,32,27.281,32,26v-5l-5.021,5.738C25.703,28.196,25,30.068,25,32.006v0.799c0,2.686,1.067,5.262,2.966,7.161L34,40z    "/>
	</g>
	<g>
		<path style="fill:#FCD4A5;" d="M33.586,31.586l-2.172-2.172C30.509,28.509,30,27.281,30,26v-2.714l-3.021,3.452    C25.703,28.196,25,30.068,25,32.006v0.799c0,2.686,1.067,5.262,2.966,7.161l4.045,0.023l1.575-1.575    C34.491,37.509,35,36.281,35,35S34.491,32.491,33.586,31.586z"/>
	</g>
	<g>
		<polygon style="fill:#999999;" points="36,44 34,40 28,40 26,44   "/>
	</g>
	<g>
		<polygon style="fill:#B3B3B3;" points="28,40 26,44 34,44 32,40   "/>
	</g>
	<g>
		<polygon style="fill:#8C6239;" points="34,63 36,44 26,44 28,63   "/>
	</g>
	<g>
		<polygon style="fill:#A67C52;" points="26,44 28,63 32,63 34,44   "/>
	</g>
	<g>
		<polygon style="fill:#999999;" points="57,44 55,40 49,40 47,44   "/>
	</g>
	<g>
		<polygon style="fill:#B3B3B3;" points="49,40 47,44 55,44 53,40   "/>
	</g>
	<g>
		<polygon style="fill:#8C6239;" points="55,63 57,44 47,44 49,63   "/>
	</g>
	<g>
		<polygon style="fill:#A67C52;" points="47,44 49,63 53,63 55,44   "/>
	</g>
	<g>
		<polygon style="fill:#999999;" points="17,44 15,40 9,40 7,44   "/>
	</g>
	<g>
		<polygon style="fill:#B3B3B3;" points="9,40 7,44 15,44 13,40   "/>
	</g>
	<g>
		<polygon style="fill:#8C6239;" points="15,63 17,44 7,44 9,63   "/>
	</g>
	<g>
		<polygon style="fill:#A67C52;" points="7,44 9,63 13,63 15,44   "/>
	</g>
	<g>
		<rect x="2" y="2" style="fill:#8C8C8C;" width="60" height="4"/>
	</g>
	<g>
		<rect x="2" y="2" style="fill:#B2B2B2;" width="57" height="4"/>
	</g>
	<g>
		<path style="fill:#BF5970;" d="M8,6v7c0,1.105,0.895,2,2,2h0c1.105,0,2-0.895,2-2v-1c0-1.105,0.895-2,2-2h0c1.105,0,2,0.895,2,2v7    c0,1.105,0.895,2,2,2h0c1.105,0,2-0.895,2-2v-5c0-1.105,0.895-2,2-2h0c1.105,0,2,0.895,2,2v1c0,1.105,0.895,2,2,2h0    c1.105,0,2-0.895,2-2v-3c0-1.105,0.895-2,2-2h0c1.105,0,2,0.895,2,2v3c0,1.105,0.895,2,2,2h0c1.105,0,2-0.895,2-2v-1    c0-1.105,0.895-2,2-2h0c1.105,0,2,0.895,2,2v5c0,1.105,0.895,2,2,2h0c1.105,0,2-0.895,2-2v-5c0-1.105,0.895-2,2-2h0    c1.105,0,2,0.895,2,2v1c0,1.105,0.895,2,2,2h0c1.105,0,2-0.895,2-2v-1c0-1.105,0.895-2,2-2h0c1.105,0,2,0.895,2,2v3    c0,1.105,0.895,2,2,2h0c1.105,0,2-0.895,2-2V6"/>
	</g>
	<g>
		<path style="fill:#FE7695;" d="M9,14.723c0.595-0.346,1-0.984,1-1.723v-1c0-1.105,0.895-2,2-2c0.366,0,0.705,0.106,1,0.277    C13.295,10.106,13.634,10,14,10c1.105,0,2,0.895,2,2v7c0,0.738,0.405,1.376,1,1.723c0.595-0.346,1-0.984,1-1.723v-5    c0-1.105,0.895-2,2-2c0.366,0,0.705,0.106,1,0.277C21.295,12.106,21.634,12,22,12c1.105,0,2,0.895,2,2v1    c0,0.738,0.405,1.376,1,1.723c0.595-0.346,1-0.984,1-1.723v-3c0-1.105,0.895-2,2-2c0.366,0,0.705,0.106,1,0.277    C29.295,10.106,29.634,10,30,10c1.105,0,2,0.895,2,2v3c0,0.738,0.405,1.376,1,1.723c0.595-0.346,1-0.984,1-1.723v-1    c0-1.105,0.895-2,2-2c0.366,0,0.705,0.106,1,0.277C37.295,12.106,37.634,12,38,12c1.105,0,2,0.895,2,2v5    c0,0.738,0.405,1.376,1,1.723c0.595-0.346,1-0.984,1-1.723v-5c0-1.105,0.895-2,2-2c0.366,0,0.705,0.106,1,0.277    C45.295,12.106,45.634,12,46,12c1.105,0,2,0.895,2,2v1c0,0.738,0.405,1.376,1,1.723c0.595-0.346,1-0.984,1-1.723v-1    c0-1.105,0.895-2,2-2c0.366,0,0.705,0.106,1,0.277C53.295,12.106,53.634,12,54,12c1.105,0,2,0.895,2,2v3    c0,0.738,0.405,1.376,1,1.723c0.595-0.346,1-0.984,1-1.723V6H8v7C8,13.738,8.405,14.376,9,14.723z"/>
	</g>
	<g>
		<path d="M34.995,63.104l-1.989-0.209l1.97-18.71l-1.87-3.738c-0.192-0.385-0.117-0.85,0.188-1.154l1.586-1.586    C35.591,36.994,36,36.008,36,35s-0.409-1.994-1.121-2.707l-2.172-2.172C31.622,29.036,31,27.534,31,26v-2.338l-3.268,3.734    C26.615,28.673,26,30.31,26,32.006v0.799c0,2.438,0.949,4.73,2.673,6.454c0.304,0.304,0.414,0.804,0.221,1.188l-1.87,3.738    l1.97,18.71l-1.989,0.209l-2-19c-0.02-0.189,0.015-0.381,0.1-0.552l1.688-3.376C24.979,38.122,24,35.539,24,32.805v-0.799    c0-2.181,0.791-4.286,2.227-5.926l5.021-5.738c0.274-0.314,0.714-0.424,1.104-0.278C32.742,20.21,33,20.583,33,21v5    c0,1.008,0.409,1.994,1.121,2.707l2.172,2.172C37.378,31.964,38,33.466,38,35s-0.622,3.036-1.707,4.121l-1.076,1.076l1.678,3.355    c0.085,0.171,0.12,0.362,0.1,0.552L34.995,63.104z"/>
	</g>
	<g>
		<rect x="26" y="43" width="10" height="2"/>
	</g>
	<g>
		<rect x="26.348" y="47" width="9.402" height="2"/>
	</g>
	<g>
		<rect x="47" y="43" width="10" height="2"/>
	</g>
	<g>
		<rect x="47.25" y="47" width="9.402" height="2"/>
	</g>
	<g>
		<path d="M15.995,63.104l-1.989-0.209l1.97-18.71L14.382,41H9.618l-1.593,3.186l1.97,18.71l-1.989,0.209l-2-19    c-0.02-0.189,0.015-0.381,0.1-0.552l2-4C8.275,39.214,8.621,39,9,39h6c0.379,0,0.725,0.214,0.895,0.553l2,4    c0.085,0.171,0.12,0.362,0.1,0.552L15.995,63.104z"/>
	</g>
	<g>
		<rect x="7" y="43" width="10" height="2"/>
	</g>
	<g>
		<rect x="7.25" y="47" width="9.402" height="2"/>
	</g>
	<g>
		<rect x="28" y="39" width="6" height="2"/>
	</g>
	<g>
		<rect x="30" y="35" width="2" height="5"/>
	</g>
	<g>
		<path d="M15.906,40.423l-1.812-0.846L20.43,26h-4.016l-1.707,1.707c-0.391,0.391-1.023,0.391-1.414,0L11.586,26H3.57l6.336,13.577    l-1.812,0.846l-7-15c-0.145-0.31-0.121-0.672,0.063-0.96S1.658,24,2,24h10c0.265,0,0.52,0.105,0.707,0.293L14,25.586l1.293-1.293    C15.48,24.105,15.735,24,16,24h6c0.342,0,0.66,0.175,0.843,0.463s0.208,0.65,0.063,0.96L15.906,40.423z"/>
	</g>
	<g>
		<rect x="5" y="30" width="14" height="2"/>
	</g>
	<g>
		<path d="M55.995,63.104l-1.989-0.209l1.97-18.71l-1.87-3.738c-0.216-0.432-0.092-0.957,0.294-1.247C55.417,38.437,56,37.27,56,36    v-2.929c0-3.947-1.413-7.677-4-10.611c-2.587,2.935-4,6.664-4,10.611V36c0,1.27,0.583,2.437,1.601,3.2    c0.386,0.29,0.51,0.815,0.294,1.247l-1.87,3.738l1.97,18.71l-1.989,0.209l-2-19c-0.02-0.189,0.015-0.381,0.1-0.552l1.653-3.307    C46.632,39.127,46,37.62,46,36v-2.929c0-4.827,1.88-9.366,5.293-12.778c0.391-0.391,1.023-0.391,1.414,0    C56.12,23.705,58,28.244,58,33.071V36c0,1.62-0.632,3.127-1.759,4.246l1.653,3.307c0.085,0.171,0.12,0.362,0.1,0.552    L55.995,63.104z"/>
	</g>
	<g>
		<rect x="49" y="39" width="6" height="2"/>
	</g>
	<g>
		<path d="M62,7H2C1.448,7,1,6.553,1,6V2c0-0.553,0.448-1,1-1h60c0.552,0,1,0.447,1,1v4C63,6.553,62.552,7,62,7z M3,5h58V3H3V5z"/>
	</g>
	<g>
		<path d="M42,22c-1.654,0-3-1.346-3-3v-5c0-0.552-0.449-1-1-1s-1,0.448-1,1v1c0,1.654-1.346,3-3,3s-3-1.346-3-3v-3    c0-0.552-0.449-1-1-1s-1,0.448-1,1v3c0,1.654-1.346,3-3,3s-3-1.346-3-3v-1c0-0.552-0.449-1-1-1s-1,0.448-1,1v5    c0,1.654-1.346,3-3,3s-3-1.346-3-3v-7c0-0.552-0.449-1-1-1s-1,0.448-1,1v1c0,1.654-1.346,3-3,3s-3-1.346-3-3V6h2v7    c0,0.552,0.449,1,1,1s1-0.448,1-1v-1c0-1.654,1.346-3,3-3s3,1.346,3,3v7c0,0.552,0.449,1,1,1s1-0.448,1-1v-5c0-1.654,1.346-3,3-3    s3,1.346,3,3v1c0,0.552,0.449,1,1,1s1-0.448,1-1v-3c0-1.654,1.346-3,3-3s3,1.346,3,3v3c0,0.552,0.449,1,1,1s1-0.448,1-1v-1    c0-1.654,1.346-3,3-3s3,1.346,3,3v5c0,0.552,0.449,1,1,1s1-0.448,1-1v-5c0-1.654,1.346-3,3-3s3,1.346,3,3v1c0,0.552,0.449,1,1,1    s1-0.448,1-1v-1c0-1.654,1.346-3,3-3s3,1.346,3,3v3c0,0.552,0.449,1,1,1s1-0.448,1-1V6h2v11c0,1.654-1.346,3-3,3s-3-1.346-3-3v-3    c0-0.552-0.449-1-1-1s-1,0.448-1,1v1c0,1.654-1.346,3-3,3s-3-1.346-3-3v-1c0-0.552-0.449-1-1-1s-1,0.448-1,1v5    C45,20.654,43.654,22,42,22z"/>
	</g>
	<g>
		<path d="M54,34c-0.256,0-0.512-0.098-0.707-0.293L52,32.414l-1.293,1.293c-0.391,0.391-1.023,0.391-1.414,0l-3-3l1.414-1.414    L50,31.586l1.293-1.293c0.391-0.391,1.023-0.391,1.414,0L54,31.586l2.293-2.293l1.414,1.414l-3,3C54.512,33.902,54.256,34,54,34z"/>
	</g>
</g>
</svg>
