<?xml version="1.0"?>
<svg xmlns="http://www.w3.org/2000/svg" viewBox="0 0 64 64" width="512" height="512"><g id="Filled_outline" data-name="Filled outline"><rect x="9" y="23" width="52" height="28" style="fill:#3b73a5"/><rect x="9" y="17" width="52" height="6" style="fill:#ffd782"/><circle cx="41" cy="34" r="13" style="fill:#5a6470"/><circle cx="41" cy="34" r="9" style="fill:#cfdfe8"/><path d="M37,34H35a6.006,6.006,0,0,1,6-6v2A4,4,0,0,0,37,34Z" style="fill:#3b73a5"/><path d="M41,40V38a4,4,0,0,0,4-4h2A6.006,6.006,0,0,1,41,40Z" style="fill:#3b73a5"/><rect x="3" y="23" width="6" height="6" style="fill:#98a1a1"/><rect x="9" y="27" width="12" height="20" style="fill:#d1f5c9"/><rect x="9" y="30" width="5" height="2" style="fill:#3b73a5"/><rect x="9" y="34" width="5" height="2" style="fill:#3b73a5"/><rect x="9" y="38" width="5" height="2" style="fill:#3b73a5"/><rect x="9" y="42" width="5" height="2" style="fill:#3b73a5"/><rect x="5" y="23" width="2" height="3" style="fill:#5a6470"/><rect x="14" y="17" width="12" height="6" style="fill:#e37f46"/><polygon points="58 48 54 48 54 46 56 46 56 42 58 42 58 48" style="fill:#fff"/><rect x="47" y="13" width="10" height="4" style="fill:#5a6470"/><rect x="21" y="13" width="6" height="4" style="fill:#5a6470"/><rect x="13" y="13" width="4" height="4" style="fill:#5a6470"/><rect x="24" y="46" width="2" height="2" style="fill:#fff"/><path d="M31,34A10,10,0,1,0,41,24,10.011,10.011,0,0,0,31,34Zm18,0a8,8,0,1,1-8-8A8.009,8.009,0,0,1,49,34Z"/><path d="M41,28a6.006,6.006,0,0,0-6,6h2a4,4,0,0,1,4-4Z"/><path d="M41,40a6.006,6.006,0,0,0,6-6H45a4,4,0,0,1-4,4Z"/><polygon points="54 48 58 48 58 42 56 42 56 46 54 46 54 48"/><path d="M58,12H46v4H28V12H20v4H18V12H12v4H8v6H2v8H8V52H62V16H58ZM48,14h8v2H48ZM22,14h4v2H22Zm3,4v4H15V18ZM14,14h2v2H14Zm-4,4h3v4H10ZM4,28V24H5v2H7V24H8v4Zm6,16h4V42H10V40h4V38H10V36h4V34H10V32h4V30H10V28H20V46H10Zm50,6H10V48H22V26H10V24H31.221a14,14,0,1,0,19.558,0H60ZM53,34A12,12,0,1,1,41,22,12.013,12.013,0,0,1,53,34Zm7-16v4H48.174a13.867,13.867,0,0,0-14.348,0H27V18Z"/><rect x="24" y="46" width="2" height="2"/></g></svg>
